{"title":"Extracted (2012) BRRip XviD - MeRCuRY","uid":7892851,"size":738370543,"categoryP":"video","categoryS":"movies","magnet":"?xt=urn:btih:744b9d93f6349adf759acc161e5ee9ab8e8fd0f6&amp;dn=Extracted+%282012%29+BRRip+XviD+-+MeRCuRY&amp;tr=udp%3A%2F%2Ftracker.openbittorrent.com%3A80&amp;tr=udp%3A%2F%2Fopen.demonii.com%3A1337&amp;tr=udp%3A%2F%2Ftracker.coppersurfer.tk%3A6969&amp;tr=udp%3A%2F%2Fexodus.desync.com%3A6969","seeders":0,"leechers":1,"uploader":"Mediamonster","files":-1,"time":1354767748,"description":"Extracted (2012) BRRip XviD - MeRCuRY\n &lt;a href=&quot;\nhttp://www.imdb.com/title/tt1757746/&quot; rel=&quot;nofollow&quot; target=&quot;_NEW&quot;&gt;\nhttp://www.imdb.com/title/tt1757746/&lt;/a&gt;\n\nPlot:\nA scientist who has invented a technique to watch people's memories finds himself in a dangerous situation after he's tasked with entering a heroin addict's mind to see whether the man committed murder.\n\n\nDetails:\nFormat                                   : AVI\nFormat/Info                              : Audio Video Interleave\nFile size                                : 698 MiB\nDuration                                 : 1h 28mn\nOverall bit rate                         : 1 098 Kbps\n\nVideo\nID                                       : 0\nFormat                                   : MPEG-4 Visual\nFormat profile                           : Advanced Simple@L5\nFormat settings, BVOP                    : 2\nFormat settings, QPel                    : No\nFormat settings, GMC                     : No warppoints\nFormat settings, Matrix                  : Default (H.263)\nCodec ID                                 : XVID\nCodec ID/Hint                            : XviD\nDuration                                 : 1h 28mn\nBit rate                                 : 964 Kbps\nWidth                                    : 640 pixels\nHeight                                   : 272 pixels\nDisplay aspect ratio                     : 2.35:1\nFrame rate                               : 23.976 fps\nColor space                              : YUV\nChroma subsampling                       : 4:2:0\nBit depth                                : 8 bits\nScan type                                : Progressive\nCompression mode                         : Lossy\nBits/(Pixel*Frame)                       : 0.231\nStream size                              : 613 MiB (88%)\nWriting library                          : XviD 1.2.1 (UTC 2008-12-04)\n\nAudio\nID                                       : 1\nFormat                                   : MPEG Audio\nFormat version                           : Version 1\nFormat profile                           : Layer 3\nMode                                     : Joint stereo\nCodec ID                                 : 55\nCodec ID/Hint                            : MP3\nDuration                                 : 1h 28mn\nBit rate mode                            : Constant\nBit rate                                 : 128 Kbps\nChannel(s)                               : 2 channels\nSampling rate                            : 48.0 KHz\nCompression mode                         : Lossy\nStream size                              : 81.4 MiB (12%)\nAlignment                                : Aligned on interleaves\nInterleave, duration                     : 167 ms (4.00 video frames)\nInterleave, preload duration             : 216 ms\nTitle                                    : extracted.2012.720p.bluray.x264-sonido\nWriting library                          : LAME3.99r\nEncoding settings                        : -m j -V 4 -q 2 -lowpass 17 -b 128","torrent":{"xt":"urn:btih:744b9d93f6349adf759acc161e5ee9ab8e8fd0f6","amp;dn":"Extracted+%282012%29+BRRip+XviD+-+MeRCuRY","amp;tr":["udp%3A%2F%2Ftracker.openbittorrent.com%3A80","udp%3A%2F%2Fopen.demonii.com%3A1337","udp%3A%2F%2Ftracker.coppersurfer.tk%3A6969","udp%3A%2F%2Fexodus.desync.com%3A6969"],"infoHash":"744b9d93f6349adf759acc161e5ee9ab8e8fd0f6","infoHashBuffer":{"type":"Buffer","data":[116,75,157,147,246,52,154,223,117,154,204,22,30,94,233,171,142,143,208,246]},"announce":[],"urlList":[]}}